# xmcd
#
# Track frame offsets: 
#        150
#        18170
#        39386
#        53528
#        73011
#        95793
#        116047
#        135432
#        149593
#        163661
#        175826
#        195005
#        208164
#        226723
#        250603
#        264899
#        279216
#
# Disc length: 3906 seconds
#
# Revision: 1
# Processed by: cddbd v1.5.2PL0 Copyright (c) Steve Scherf et al.
# Submitted via: ExactAudioCopyFreeDBPlugin 1.0
#
DISCID=de0f4011
DTITLE=Frank Robinson and Guitar Curtis - Deep East Texas Blues
DYEAR=1996
DGENRE=Blues
TTITLE0=Walking With Frankie
TTITLE1=Katie MAe Blues
TTITLE2=See That My Grave Is Kept Clean - Take 1
TTITLE3=Mean Old Twister
TTITLE4=Goining To Navasota
TTITLE5=My Thang
TTITLE6=Crockett Blues
TTITLE7=Lucy Mae Blues
TTITLE8=Santa Fe
TTITLE9=Rolling Stone
TTITLE10=Navasota Part I
TTITLE11=Curtis Shuffle
TTITLE12=Navasota Part II
TTITLE13=Santa Claus
TTITLE14=Pennitentiary Blues
TTITLE15=Tom Moore Blues
TTITLE16=See That My Grave Is Kept Clean - Take 2
EXTD=
EXTT0=
EXTT1=
EXTT2=
EXTT3=
EXTT4=
EXTT5=
EXTT6=
EXTT7=
EXTT8=
EXTT9=
EXTT10=
EXTT11=
EXTT12=
EXTT13=
EXTT14=
EXTT15=
EXTT16=
PLAYORDER=
